<!DOCTYPE svg PUBLIC "-//W3C//DTD SVG 1.1//EN" "http://www.w3.org/Graphics/SVG/1.1/DTD/svg11.dtd">
<!-- Uploaded to: SVG Repo, www.svgrepo.com, Transformed by: SVG Repo Mixer Tools -->
<svg fill="#ffe7d6" width="800px" height="800px" viewBox="0 0 64 64" xmlns="http://www.w3.org/2000/svg" stroke="#ffe7d6">
<g id="SVGRepo_bgCarrier" stroke-width="0"/>
<g id="SVGRepo_tracerCarrier" stroke-linecap="round" stroke-linejoin="round"/>
<g id="SVGRepo_iconCarrier"> <g data-name="31 delivery box" id="_31_delivery_box"> <path d="M32,3.5A19.7,19.7,0,0,0,12.32,23.18c0,.03.02.06.02.09a1.18,1.18,0,0,0,.04.2,1.336,1.336,0,0,0,.07.18,1.3,1.3,0,0,0,.1.15,1,1,0,0,0,.15.14.234.234,0,0,0,.07.07L28.7,34.63H17.43a2.006,2.006,0,0,0-2,2V58.5a2.006,2.006,0,0,0,2,2H46.57a2.006,2.006,0,0,0,2-2V36.63a2.006,2.006,0,0,0-2-2H35.3L51.23,24.01a.234.234,0,0,0,.07-.07,1,1,0,0,0,.15-.14,1.3,1.3,0,0,0,.1-.15,1.336,1.336,0,0,0,.07-.18,1.18,1.18,0,0,0,.04-.2c0-.03.02-.06.02-.09A19.7,19.7,0,0,0,32,3.5Zm0,2a17.694,17.694,0,0,1,15.68,9.52,10.243,10.243,0,0,0-6.34-2.18A10.347,10.347,0,0,0,32,18.75a10.347,10.347,0,0,0-9.34-5.91,10.243,10.243,0,0,0-6.34,2.18A17.694,17.694,0,0,1,32,5.5ZM14.35,22.66A8.333,8.333,0,0,1,31,23.18V33.76ZM34.11,36.63v8.55l-1.56-1.04a.975.975,0,0,0-1.1,0l-1.56,1.04V36.63Zm1.47,11.3a1,1,0,0,0,.53-.88V36.63H46.57V58.5H17.43V36.63H27.89V47.05a1,1,0,0,0,.53.88,1.009,1.009,0,0,0,1.02-.05L32,46.17l2.56,1.71a1.016,1.016,0,0,0,.55.17A.939.939,0,0,0,35.58,47.93ZM33,33.76V23.18a8.333,8.333,0,0,1,16.65-.52Z"/> <path d="M43.42,50.2H37.19a1,1,0,0,0-1,1v4.15a1,1,0,0,0,1,1h6.23a1,1,0,0,0,1-1V51.2A1,1,0,0,0,43.42,50.2Zm-1,4.15H38.19V52.2h4.23Z"/> </g> </g>
</svg>